<svg width="20" height="20" viewBox="0 0 20 20" fill="none" xmlns="http://www.w3.org/2000/svg">
<path d="M9.86759 19.9998C15.3173 19.9998 19.7352 15.582 19.7352 10.1322C19.7352 4.68252 15.3173 0.264648 9.86759 0.264648C4.41787 0.264648 0 4.68252 0 10.1322C0 15.582 4.41787 19.9998 9.86759 19.9998Z" fill="#FFD93B"/>
<path d="M16.2475 12.5716C15.6737 15.5754 13.0343 17.8385 9.87057 17.8385C6.70054 17.8385 4.06114 15.5754 3.49363 12.5716C3.43801 12.2816 3.70926 12.0347 3.99301 12.1153C7.90305 13.1947 11.8193 13.1885 15.7481 12.1091C16.0319 12.0347 16.3031 12.2816 16.2475 12.5716Z" fill="#3E4347"/>
<path d="M4.66406 12.2769C5.60345 14.08 7.46596 14.61 9.84474 14.61C12.2148 14.61 14.0691 14.0819 15.0123 12.2912C11.5573 13.1212 8.10722 13.1187 4.66406 12.2769Z" fill="white"/>
<path d="M19.7345 10.1325C19.7345 15.5844 15.3157 20.0001 9.86687 20.0001C6.76496 20.0001 3.99556 18.5694 2.18555 16.3276C3.87869 17.6969 6.03371 18.5138 8.3806 18.5138C13.8294 18.5138 18.2482 14.0982 18.2482 8.64623C18.2482 6.29933 17.4313 4.14369 16.0619 2.45117C18.3007 4.26119 19.7345 7.02996 19.7345 10.1325Z" fill="#F4C534"/>
<path d="M8.93339 6.27569C8.93339 8.41821 6.39399 11.0782 3.79584 10.0788C2.60833 9.61634 1.74769 8.49258 1.61332 7.21757C1.49019 5.81318 2.20457 4.48504 3.43333 3.82379C5.44085 2.8044 8.93339 3.88441 8.93339 6.27569Z" fill="white"/>
<path d="M15.9438 10.0788C14.6713 10.5681 13.3844 10.2175 12.3569 9.31189C10.7075 7.87125 9.9969 5.40685 12.1582 4.08684C13.3926 3.33808 15.1307 3.22683 16.2895 3.82371C18.8832 5.20622 18.717 8.99938 15.9438 10.0788Z" fill="white"/>
<path d="M18.9568 3.23441H18.6293C17.7224 3.23441 16.8037 3.18191 15.9262 2.95941C14.3055 2.54378 12.3918 3.04128 11.3211 4.15317C10.9761 4.50442 10.4905 4.6738 9.99861 4.6738H9.75298C9.25547 4.6738 8.76422 4.5038 8.41922 4.14754C7.33046 3.03566 5.40481 2.54378 3.80167 2.95941C2.92979 3.18191 2.02291 3.23441 1.1279 3.23441H0.776644C0.560392 3.23441 0.384766 3.41004 0.384766 3.63254V4.85568C0.384766 5.0138 0.489767 5.1363 0.630393 5.20693C0.811645 5.30006 0.934771 5.48756 0.934771 5.70443C0.934771 5.75006 0.929146 5.80319 0.911021 5.85006C-0.159615 9.81697 4.5098 13.0001 7.81546 9.81135C8.51172 9.12134 9.01485 8.32508 9.24297 7.42445C9.31297 7.14382 9.57673 6.96195 9.86923 6.96195C10.1561 6.96195 10.4249 7.1432 10.4892 7.42445C10.7174 8.32571 11.2205 9.12134 11.9167 9.81135C15.2055 12.9889 19.8918 9.84635 18.8212 5.84444C18.7512 5.58131 18.8799 5.32381 19.1018 5.20693C19.2424 5.1363 19.3474 5.00755 19.3474 4.85005V3.63254C19.3487 3.40941 19.1731 3.23441 18.9568 3.23441ZM7.1842 9.09134C4.91418 11.0982 2.15228 9.50072 1.90665 7.18382C1.78978 5.89631 2.45104 4.68567 3.57417 4.08254C5.35919 3.16941 8.64172 4.10567 8.64172 6.27694C8.64109 7.35945 7.98546 8.39508 7.1842 9.09134ZM17.8274 7.18382C17.5818 9.50072 14.8255 11.0982 12.5493 9.09134C11.7536 8.39446 11.098 7.35882 11.098 6.27694C11.098 4.10567 14.3805 3.17004 16.1537 4.08254C17.283 4.68567 17.9443 5.89631 17.8274 7.18382Z" fill="#3E4347"/>
<path d="M14.0663 8.50573C14.9044 8.50573 15.5839 7.82632 15.5839 6.98822C15.5839 6.15012 14.9044 5.4707 14.0663 5.4707C13.2282 5.4707 12.5488 6.15012 12.5488 6.98822C12.5488 7.82632 13.2282 8.50573 14.0663 8.50573Z" fill="#3E4347"/>
<path d="M14.8647 6.18623C14.6829 6.00439 14.4326 5.95987 14.3057 6.08679C14.1788 6.21372 14.2233 6.46401 14.4051 6.64585C14.587 6.82769 14.8373 6.87221 14.9642 6.74529C15.0911 6.61837 15.0466 6.36807 14.8647 6.18623Z" fill="white"/>
<path d="M5.81439 8.50573C6.65249 8.50573 7.3319 7.82632 7.3319 6.98822C7.3319 6.15012 6.65249 5.4707 5.81439 5.4707C4.97629 5.4707 4.29688 6.15012 4.29688 6.98822C4.29688 7.82632 4.97629 8.50573 5.81439 8.50573Z" fill="#3E4347"/>
<path d="M6.61279 6.18574C6.43096 6.00391 6.18066 5.95939 6.05374 6.08631C5.92682 6.21323 5.97134 6.46353 6.15318 6.64536C6.33501 6.8272 6.58531 6.87172 6.71223 6.7448C6.83915 6.61788 6.79463 6.36758 6.61279 6.18574Z" fill="white"/>
<path d="M7.46569 1.01295C7.49007 0.935446 3.88691 1.0317 2.81627 3.03359C2.54439 3.02984 5.18254 -2.12521 7.46569 1.01295Z" fill="#3E4347"/>
<path d="M12.2697 1.01295C12.2453 0.935446 15.8484 1.0317 16.9191 3.03359C17.191 3.02984 14.5528 -2.12521 12.2697 1.01295Z" fill="#3E4347"/>
<path d="M9.32297 15.7151C7.26108 15.7151 6.36982 14.5976 5.95794 15.7813C5.87856 16.0088 5.85669 16.237 5.87544 16.4613C6.97732 17.3226 8.36234 17.8389 9.8711 17.8389C11.3792 17.8389 12.7643 17.3207 13.8674 16.457C13.8855 16.2338 13.863 16.007 13.7843 15.7807C13.3724 14.5976 11.3849 15.7151 9.32297 15.7151Z" fill="#E24B4B"/>
</svg>
