<svg width="20" height="20" viewBox="0 0 20 20" fill="none" xmlns="http://www.w3.org/2000/svg">
<path d="M10 20C15.5228 20 20 15.5228 20 10C20 4.47715 15.5228 0 10 0C4.47715 0 0 4.47715 0 10C0 15.5228 4.47715 20 10 20Z" fill="#FFD93B"/>
<path d="M19.9992 10.0002C19.9992 15.5252 15.5211 20.0002 9.99922 20.0002C6.85547 20.0002 4.04922 18.5502 2.21484 16.2783C3.93047 17.6658 6.11484 18.4939 8.49297 18.4939C14.0148 18.4939 18.493 14.0189 18.493 8.49394C18.493 6.11582 17.6648 3.93144 16.2773 2.21582C18.5461 4.05019 19.9992 6.85644 19.9992 10.0002Z" fill="#F4C534"/>
<path d="M8.15375 3.84461C6.81875 3.32962 5.53937 3.51649 4.73438 4.42774C5.25875 2.94712 6.68875 2.31462 8.01937 2.63587L8.15375 3.84461Z" fill="#3E4347"/>
<path d="M9.62908 8.39769C9.6347 10.3446 8.38408 11.9233 6.83595 11.9233C5.28783 11.9233 4.02908 10.3452 4.02346 8.39769C4.01783 6.45082 5.26846 4.87207 6.81658 4.87207C8.36408 4.87207 9.62345 6.45082 9.62908 8.39769Z" fill="#3E4347"/>
<path d="M9.12753 8.39773C9.25691 10.0984 8.33128 11.4771 7.06004 11.4771C5.78879 11.4771 4.65316 10.0984 4.52379 8.39773C4.39441 6.69711 5.32004 5.31836 6.59129 5.31836C7.86253 5.31773 8.99816 6.69648 9.12753 8.39773Z" fill="white"/>
<path d="M7.65555 10.2883C8.3207 10.2883 8.85992 9.68496 8.85992 8.94076C8.85992 8.19656 8.3207 7.59326 7.65555 7.59326C6.99039 7.59326 6.45117 8.19656 6.45117 8.94076C6.45117 9.68496 6.99039 10.2883 7.65555 10.2883Z" fill="#3E4347"/>
<path d="M8.31042 8.72573C8.17667 8.84823 7.93605 8.79511 7.76667 8.61448C7.5973 8.43448 7.56917 8.18823 7.69605 8.07136C7.8298 7.94886 8.07042 7.99573 8.23355 8.18198C8.40355 8.36261 8.4373 8.60886 8.31042 8.72573Z" fill="#5A5F63"/>
<path d="M11.8457 3.84461C13.1807 3.32962 14.4601 3.51649 15.2651 4.42774C14.7407 2.94712 13.3107 2.31462 11.9801 2.63587L11.8457 3.84461Z" fill="#3E4347"/>
<path d="M10.3711 8.39769C10.3655 10.3446 11.6161 11.9233 13.1642 11.9233C14.7124 11.9233 15.9711 10.3452 15.9767 8.39769C15.9824 6.45082 14.7317 4.87207 13.1836 4.87207C11.6361 4.87207 10.3767 6.45082 10.3711 8.39769Z" fill="#3E4347"/>
<path d="M10.8714 8.39773C10.7421 10.0984 11.6677 11.4771 12.9389 11.4771C14.2102 11.4771 15.3458 10.0984 15.4752 8.39773C15.6046 6.69711 14.6789 5.31836 13.4077 5.31836C12.1364 5.31773 11.0008 6.69648 10.8714 8.39773Z" fill="white"/>
<path d="M12.343 10.2883C13.0082 10.2883 13.5474 9.68496 13.5474 8.94076C13.5474 8.19656 13.0082 7.59326 12.343 7.59326C11.6779 7.59326 11.1387 8.19656 11.1387 8.94076C11.1387 9.68496 11.6779 10.2883 12.343 10.2883Z" fill="#3E4347"/>
<path d="M11.6881 8.72573C11.8212 8.84823 12.0624 8.79511 12.2318 8.61448C12.4012 8.43448 12.4287 8.18823 12.3024 8.07136C12.1693 7.94886 11.9281 7.99573 11.7649 8.18198C11.5949 8.36261 11.5612 8.60886 11.6881 8.72573Z" fill="#5A5F63"/>
<path d="M15.2508 14.4362C15.2508 14.4362 14.9558 14.0524 14.6008 13.7987C14.5633 13.7674 14.5258 13.7424 14.482 13.7174C13.8664 15.5668 11.9477 16.2943 10.007 16.3674C7.12892 16.2712 5.75267 14.7218 5.51955 13.7112C5.48205 13.7424 5.4383 13.7674 5.39455 13.7987C5.06205 14.0362 4.7508 14.4362 4.7508 14.4362C4.70955 14.2299 4.85955 13.7981 5.2133 13.5487C5.51142 13.3206 5.9608 13.2606 6.19455 13.3424C5.98955 13.4449 5.74955 13.5612 5.55705 13.6862C5.96142 14.4943 7.40455 15.6899 9.9883 15.7424C12.5027 15.6981 13.9814 14.6174 14.4445 13.6924C14.1845 13.5237 14.0752 13.4843 13.807 13.3424C14.0408 13.2606 14.4902 13.3206 14.7883 13.5487C15.0708 13.7474 15.2508 14.0593 15.2508 14.4362Z" fill="#3E4347"/>
<path d="M8.78125 17.2285C8.99312 17.2616 9.66125 17.5641 9.87187 17.5516C10.4281 17.5779 11.0237 17.2285 11.0237 17.2285C10.9169 17.6285 10.4787 18.0123 9.89937 17.9948C9.31625 17.9704 8.8675 17.5754 8.78125 17.2285Z" fill="#F4C534"/>
</svg>
