<svg width="52" height="52" viewBox="0 0 52 52" fill="none" xmlns="http://www.w3.org/2000/svg">
<path d="M0 23.8C0 14.6344 0 10.0516 2.06304 6.68502C3.21742 4.80124 4.80124 3.21742 6.68502 2.06304C10.0516 0 14.6344 0 23.8 0H28.2003C37.3659 0 41.9487 0 45.3153 2.06304C47.1991 3.21742 48.7829 4.80124 49.9373 6.68502C52.0003 10.0516 52.0003 14.6344 52.0003 23.8V28.2003C52.0003 37.3659 52.0003 41.9487 49.9373 45.3153C48.7829 47.1991 47.1991 48.7829 45.3153 49.9373C41.9487 52.0003 37.3659 52.0003 28.2003 52.0003H23.8C14.6344 52.0003 10.0516 52.0003 6.68502 49.9373C4.80124 48.7829 3.21742 47.1991 2.06304 45.3153C0 41.9487 0 37.3659 0 28.2003V23.8Z" fill="#44CB7F"/>
<path d="M40.1488 23.355V21.4017C40.1488 20.8815 40.2699 20.3684 40.5026 19.9031C40.9662 18.7442 41.1172 17.4838 40.9407 16.2482L40.8564 15.6577H24.2287L11.4926 36.177L23.5211 40.0686L31.3043 29.8089H38.7337H40.4841C40.7289 29.8089 40.9704 29.7519 41.1893 29.6425C41.4348 29.5197 41.644 29.335 41.7962 29.1067L41.94 28.891C42.1561 28.5668 42.2715 28.1859 42.2715 27.7962C42.2715 27.2728 42.0635 26.7708 41.6934 26.4006L41.2101 25.9174C40.5306 25.2378 40.1488 24.3161 40.1488 23.355Z" fill="#FFE1B2"/>
<path fill-rule="evenodd" clip-rule="evenodd" d="M29.0558 52.0002C28.775 52.0003 28.4897 52.0003 28.1999 52.0003H23.7996C14.634 52.0003 10.0512 52.0003 6.68459 49.9373C5.81343 49.4034 5.00642 48.7777 4.27637 48.073C4.94904 43.5227 9.38244 36.7081 10.853 34.9294C11.2302 34.4732 11.8587 34.3185 12.4119 34.5293L24.7837 39.2423C25.7753 39.6201 26.5499 40.4217 26.8641 41.4352C27.8601 44.6486 28.5907 48.5396 29.0558 52.0002Z" fill="#FFCA61"/>
<path d="M39.0859 29.4552C37.3151 28.3937 31.6584 28.7475 31.3046 28.3938C29.182 26.2718 32.188 18.3122 33.7792 15.6578C47.2248 19.9031 47.2244 8.22847 34.8406 8.93602C21.2589 3.36416 10.7625 12.5325 17.1862 27.6678C17.3767 28.1167 17.7971 28.4329 18.2811 28.4917C19.7685 28.6724 22.8984 29.0166 23.1658 28.7476C23.5177 28.3937 24.5828 25.9175 23.8734 25.5636C16.1688 21.7205 27.1908 14.097 28.3717 21.3712C28.5154 22.2565 28.3146 23.1681 27.9055 23.9663C26.354 26.994 23.947 29.7703 24.9347 33.7006C25.2904 35.1158 31.0216 37.8753 34.1349 37.5923C37.2482 37.3092 40.8567 30.5167 39.0859 29.4552Z" fill="#4E1E30"/>
<path d="M36.6117 23.0872C36.6117 23.6734 37.0869 24.1486 37.673 24.1486C38.2592 24.1486 38.7344 23.6734 38.7344 23.0872C38.7344 22.5011 38.2592 22.0259 37.673 22.0259C37.0869 22.0259 36.6117 22.5011 36.6117 23.0872Z" fill="#4A1827"/>
<path d="M40.1494 19.9034C40.1494 19.5126 39.8326 19.1958 39.4419 19.1958H35.904C35.5133 19.1958 35.1965 19.5126 35.1965 19.9034C35.1965 20.2941 35.5133 20.6109 35.904 20.6109H39.4419C39.8326 20.6109 40.1494 20.2941 40.1494 19.9034Z" fill="#4E1E30"/>
</svg>
