<svg width="52" height="52" viewBox="0 0 52 52" fill="none" xmlns="http://www.w3.org/2000/svg">
<path d="M0 23.8C0 14.6344 0 10.0516 2.06304 6.68502C3.21742 4.80124 4.80124 3.21742 6.68502 2.06304C10.0516 0 14.6344 0 23.8 0H28.2003C37.3659 0 41.9487 0 45.3153 2.06304C47.1991 3.21742 48.7829 4.80124 49.9373 6.68502C52.0003 10.0516 52.0003 14.6344 52.0003 23.8V28.2003C52.0003 37.3659 52.0003 41.9487 49.9373 45.3153C48.7829 47.1991 47.1991 48.7829 45.3153 49.9373C41.9487 52.0003 37.3659 52.0003 28.2003 52.0003H23.8C14.6344 52.0003 10.0516 52.0003 6.68502 49.9373C4.80124 48.7829 3.21742 47.1991 2.06304 45.3153C0 41.9487 0 37.3659 0 28.2003V23.8Z" fill="#FF9054"/>
<path d="M16.9806 35.0534C14.7282 29.3708 9.99679 24.228 15.9505 13.8689C18.4026 9.60246 22.1481 6.7887 26.0174 7.74136C29.8867 6.78881 33.6322 9.60257 36.0843 13.8689C42.0378 24.228 37.3067 29.3708 35.0539 35.0534L26.0177 35.0758L16.9809 35.0534H16.9806Z" fill="#1F0951"/>
<path fill-rule="evenodd" clip-rule="evenodd" d="M42.9173 51.0095C39.7439 51.9998 35.377 51.9998 28.2007 51.9998H23.8004C16.6242 51.9998 12.2574 51.9998 9.08398 51.0096C9.4212 49.714 9.74281 48.2602 10.0203 47.0058C10.3668 45.4395 10.6444 44.1843 10.7977 43.9368C12.7253 40.8246 15.1181 39.7178 17.2215 38.7449C19.85 37.5291 22.0267 36.5223 22.2794 32.0725C22.2794 32.0725 24.2817 33.6063 25.9248 33.5916C27.5678 33.577 29.7196 31.9712 29.7196 31.9712C29.9734 36.4329 32.1571 37.4646 34.792 38.7094C36.8921 39.7016 39.2788 40.8292 41.2034 43.9368C41.3566 44.184 41.634 45.438 41.9802 47.0031C42.2578 48.2581 42.5797 49.7132 42.9173 51.0095Z" fill="#FFD7A3"/>
<path d="M29.8354 33.1039C29.7815 32.7525 29.7418 32.3766 29.7189 31.9717C29.7189 31.9717 27.5671 33.5774 25.9241 33.5921C24.281 33.6068 22.2787 32.073 22.2787 32.073C22.2555 32.4853 22.2148 32.8667 22.1592 33.2228C22.2013 33.2561 22.2431 33.2898 22.2859 33.3227L22.2854 33.3285C22.4119 33.4387 24.3352 35.0926 25.9238 35.0759C27.5124 35.0925 29.4355 33.4384 29.5622 33.3285L29.5619 33.3227C29.6552 33.2513 29.7457 33.1778 29.8351 33.1041L29.8354 33.1039Z" fill="#F0C290"/>
<path d="M22.2855 32.0779C22.412 32.1733 24.3354 33.6061 25.9239 33.5917C27.5125 33.6061 29.4356 32.1731 29.5624 32.0779C31.9635 30.678 33.9337 26.5509 33.4889 22.078C33.1247 18.414 29.1611 23.7864 26.4005 16.2266C22.4934 24.4112 18.7824 19.5698 18.3593 22.6716C17.8929 26.0892 19.8116 30.3894 22.2855 32.0781V32.0779Z" fill="#FFE1B2"/>
<path fill-rule="evenodd" clip-rule="evenodd" d="M42.9553 50.9975C39.7788 51.9998 35.4056 51.9998 28.2002 51.9998H23.7999C16.5939 51.9998 12.2206 51.9998 9.04395 50.9972C9.43516 49.3051 9.80699 47.0775 10.1154 45.2299C10.417 43.4229 10.6579 41.9795 10.797 41.7559C11.8744 40.0238 14.1001 39.4091 16.1724 38.8369C17.2655 38.535 18.3159 38.2449 19.1326 37.8089L19.1333 37.8097C23.5179 51.8755 29.0032 50.9652 32.6834 37.6133C33.4798 38.041 34.5811 38.3378 35.7334 38.6484C38.0059 39.2609 40.4772 39.927 41.2023 41.7559C41.286 41.967 41.4758 43.0697 41.7261 44.5247C42.063 46.4826 42.5096 49.0784 42.9553 50.9975ZM19.1329 37.8087C19.1328 37.8087 19.1327 37.8088 19.1326 37.8089L19.1324 37.8087H19.1329ZM19.1329 37.8087C19.1329 37.8087 19.133 37.8086 19.1331 37.8086V37.8087H19.1329Z" fill="#3A63DE"/>
<path d="M20.7102 36.4819C20.5565 40.636 21.2628 46.5211 25.9239 48.025C21.5357 48.2085 18.6882 41.8858 15.4443 40.2298L20.7101 36.4822V36.4819H20.7102Z" fill="white"/>
<path d="M31.3988 36.4819C31.5599 40.636 30.8185 46.5211 25.9238 48.025C30.5318 48.2085 33.5221 41.8858 36.9278 40.2298L31.3986 36.4822L31.3988 36.4819Z" fill="white"/>
</svg>
