<svg width="52" height="52" viewBox="0 0 52 52" fill="none" xmlns="http://www.w3.org/2000/svg">
<path d="M0 23.8C0 14.6344 0 10.0516 2.06304 6.68502C3.21742 4.80124 4.80124 3.21742 6.68502 2.06304C10.0516 0 14.6344 0 23.8 0H28.2003C37.3659 0 41.9487 0 45.3153 2.06304C47.1991 3.21742 48.7829 4.80124 49.9373 6.68502C52.0003 10.0516 52.0003 14.6344 52.0003 23.8V28.2003C52.0003 37.3659 52.0003 41.9487 49.9373 45.3153C48.7829 47.1991 47.1991 48.7829 45.3153 49.9373C41.9487 52.0003 37.3659 52.0003 28.2003 52.0003H23.8C14.6344 52.0003 10.0516 52.0003 6.68502 49.9373C4.80124 48.7829 3.21742 47.1991 2.06304 45.3153C0 41.9487 0 37.3659 0 28.2003V23.8Z" fill="#EDEDF0"/>
<path d="M26.1223 40.6221C26.0817 40.6221 26.0412 40.6626 26.0006 40.6626C25.96 40.6626 25.9195 40.6221 25.8789 40.6221H26.1223Z" fill="#84DBFF"/>
<path fill-rule="evenodd" clip-rule="evenodd" d="M47.6369 48.1563C46.9299 48.8271 46.1524 49.4245 45.3156 49.9373C41.9491 52.0003 37.3663 52.0003 28.2007 52.0003H23.8003C14.6347 52.0003 10.0519 52.0003 6.68537 49.9373C5.86218 49.4328 5.09627 48.8464 4.39844 48.1887C4.83761 47.4055 5.44567 46.5562 6.00029 45.8145C9.36743 41.3114 14.5196 39.0802 18.7386 37.9849C18.4141 40.6624 19.7934 44.2323 19.834 44.1512C21.2539 40.9058 26.0003 40.6218 26.0003 40.6218C26.0003 40.6218 30.7468 40.9058 32.1261 44.1512C32.1667 44.2323 33.5865 40.6624 33.2214 37.9849C37.4811 39.0802 42.6738 41.3114 46.0003 45.8145C46.634 46.6722 47.2091 47.4576 47.6369 48.1563Z" fill="#37CFD1"/>
<path d="M31.8017 35.4694C31.8017 35.4694 31.8017 35.4694 31.8017 35.5099C31.8017 35.9156 31.5988 38.512 26.1222 40.5809H25.8787C20.4021 38.512 20.1992 35.9156 20.1992 35.5099C20.1992 35.4694 20.1992 35.4694 20.1992 35.4694C20.1992 34.942 20.3209 34.4146 20.4426 33.8872C22.0248 35.875 23.9315 37.2138 26.0005 37.2138C28.0694 37.2138 29.9761 35.875 31.5583 33.8872C31.68 34.4146 31.8017 34.942 31.8017 35.4694Z" fill="#FFD7A3"/>
<path d="M31.8012 35.4697C31.8012 35.4697 32.0852 38.3906 26 40.6624C26 40.6624 30.7464 40.9464 32.1258 44.1919C32.2069 44.273 34.9249 37.2142 31.8012 35.4697Z" fill="#148A99"/>
<path d="M20.1992 35.4697C17.0754 37.2142 19.7935 44.273 19.8746 44.1513C21.2945 40.9058 26.0004 40.6219 26.0004 40.6219C19.9152 38.3906 20.1992 35.4697 20.1992 35.4697Z" fill="#148A99"/>
<path d="M34.5198 25.2058C34.1547 27.721 33.0594 30.074 31.2338 31.8589C30.8687 32.2241 30.5442 32.508 30.1385 32.792L29.4894 30.723H22.5117L21.8626 32.792C20.5644 31.8184 17.8464 29.1003 17.8058 26.5445C16.6699 11.9806 27.8261 15.0638 27.8261 15.0638C35.3312 14.5364 35.0878 21.149 34.5198 25.2058Z" fill="#FFE1B2"/>
<path d="M36.0211 27.8428C35.4532 28.7758 34.6824 29.4249 33.9521 29.6683C34.2361 29.0192 34.4795 28.3296 34.6824 27.6399C34.6824 27.6399 34.6824 27.6399 34.6824 27.5994C34.8446 26.9908 35.0069 26.3823 35.1692 25.7738H35.1286C35.2909 25.1653 35.4532 24.5568 35.5749 23.9482C35.7371 23.9482 35.8994 24.0294 36.0617 24.1105C36.9542 24.6785 36.9136 26.3418 36.0211 27.8428Z" fill="#FFE1B2"/>
<path d="M18.0493 29.6682C17.3191 29.4248 16.5483 28.7757 15.9803 27.8426C15.0473 26.3416 15.0473 24.6783 15.9398 24.151C16.0209 24.1104 16.0615 24.0698 16.1426 24.0698C16.6294 25.9765 17.1974 27.3964 17.3191 27.6804C17.5219 28.3295 17.7653 29.0191 18.0493 29.6682Z" fill="#FFE1B2"/>
<path d="M30.4223 11.0072C30.7468 7.27497 24.8239 7.51838 24.8239 7.51838C15.8584 8.81655 14.8848 17.1736 14.8848 17.1736L16.1018 15.7131C14.1951 19.8916 17.0754 27.0722 17.3188 27.6401C18.8199 32.63 22.1464 37.2142 26.0004 37.2142C29.8543 37.2142 33.1809 32.63 34.6819 27.6401C34.6819 27.6401 34.6819 27.6401 34.6819 27.5995C34.8442 26.991 35.0065 26.3825 35.1282 25.774H35.0876C35.899 22.5285 36.7915 19.2425 36.7915 19.2425C39.1038 7.59951 30.4223 11.0072 30.4223 11.0072ZM34.5197 25.206C34.1546 27.7212 33.0592 30.0742 31.2337 31.8592C30.8685 32.2243 30.5034 32.5083 30.1383 32.7922L29.4892 30.7638H22.5115L21.8625 32.8328C20.5643 31.8592 19.4689 30.5204 18.5765 28.9789C18.1708 28.1675 17.9274 27.3156 17.8057 26.5853C16.6698 12.0214 27.8259 15.1046 27.8259 15.1046C35.331 14.5366 35.0876 21.1492 34.5197 25.206Z" fill="#324A5E"/>
<path d="M30.4223 11.0072C30.7468 7.27497 24.8239 7.51838 24.8239 7.51838C15.8584 8.81655 14.8848 17.1736 14.8848 17.1736L16.1018 15.7131C14.1951 19.8916 17.0754 27.0722 17.3188 27.6401C18.8199 32.63 22.1464 37.2142 26.0004 37.2142C29.8543 37.2142 33.1809 32.63 34.6819 27.6401C34.6819 27.6401 34.6819 27.6401 34.6819 27.5995C34.8442 26.991 35.0065 26.3825 35.1282 25.774H35.0876C35.899 22.5285 36.7915 19.2425 36.7915 19.2425C39.1038 7.59951 30.4223 11.0072 30.4223 11.0072ZM34.5197 25.206C34.1546 27.7212 33.0592 30.0742 31.2337 31.8592C30.8685 32.2243 30.5034 32.5083 30.1383 32.7922L29.4892 30.7638H22.5115L21.8625 32.8328C20.5643 31.8592 19.4689 30.5204 18.5765 28.9789C18.1708 28.1675 17.9274 27.3156 17.8057 26.5853C16.6698 12.0214 27.8259 15.1046 27.8259 15.1046C35.331 14.5366 35.0876 21.1492 34.5197 25.206Z" fill="#324A5E"/>
<path d="M30.4223 11.0072C30.7468 7.27497 24.8239 7.51838 24.8239 7.51838C15.8584 8.81655 14.8848 17.1736 14.8848 17.1736L16.1018 15.7131C14.1951 19.8916 17.0754 27.0722 17.3188 27.6401C18.8199 32.63 22.1464 37.2142 26.0004 37.2142C29.8543 37.2142 33.1809 32.63 34.6819 27.6401C34.6819 27.6401 34.6819 27.6401 34.6819 27.5995C34.8442 26.991 35.0065 26.3825 35.1282 25.774H35.0876C35.899 22.5285 36.7915 19.2425 36.7915 19.2425C39.1038 7.59951 30.4223 11.0072 30.4223 11.0072ZM34.5197 25.206C34.1546 27.7212 33.0592 30.0742 31.2337 31.8592C30.8685 32.2243 30.5034 32.5083 30.1383 32.7922L29.4892 30.7638H22.5115L21.8625 32.8328C20.5643 31.8592 17.8462 29.1411 17.8057 26.5853C16.6698 12.0214 27.8259 15.1046 27.8259 15.1046C35.331 14.5366 35.0876 21.1492 34.5197 25.206Z" fill="#1F0951"/>
<path d="M23.1602 32.1431C23.8498 32.9139 24.864 33.4412 25.9999 33.4412C27.1358 33.4412 28.15 32.9544 28.8397 32.1431H23.1602Z" fill="white"/>
</svg>
