<svg width="52" height="52" viewBox="0 0 52 52" fill="none" xmlns="http://www.w3.org/2000/svg">
<path d="M0 23.8C0 14.6344 0 10.0516 2.06304 6.68502C3.21742 4.80124 4.80124 3.21742 6.68502 2.06304C10.0516 0 14.6344 0 23.8 0H28.2003C37.3659 0 41.9487 0 45.3153 2.06304C47.1991 3.21742 48.7829 4.80124 49.9373 6.68502C52.0003 10.0516 52.0003 14.6344 52.0003 23.8V28.2003C52.0003 37.3659 52.0003 41.9487 49.9373 45.3153C48.7829 47.1991 47.1991 48.7829 45.3153 49.9373C41.9487 52.0003 37.3659 52.0003 28.2003 52.0003H23.8C14.6344 52.0003 10.0516 52.0003 6.68502 49.9373C4.80124 48.7829 3.21742 47.1991 2.06304 45.3153C0 41.9487 0 37.3659 0 28.2003V23.8Z" fill="#FDC8A6"/>
<path d="M32.5988 9.271L27.4668 37.1303L31.1325 37.8634C38.8915 32.1816 42.2211 9.271 32.5988 9.271Z" fill="#4E1E30"/>
<path d="M32.5989 9.27115C31.3159 8.49214 24.5445 6.51376 19.4024 9.27115C13.0791 12.6619 7.54992 24.7892 16.4698 37.1305C16.4825 37.1479 23.0681 36.3974 23.0681 36.3974L32.5989 9.27115Z" fill="#4E1E30"/>
<path fill-rule="evenodd" clip-rule="evenodd" d="M32.5979 51.9784C30.9948 52.0001 29.2073 52.0001 27.1999 52.0001H22.7996C21.5896 52.0001 20.4594 52.0001 19.4014 51.9953V38.3086C20.8607 37.2067 20.8677 35.3851 20.8677 33.7092V31.9985H31.1316V33.711H31.1715C31.1715 35.3725 31.1759 37.1783 32.5979 38.283V51.9784Z" fill="#FFD7A3"/>
<path fill-rule="evenodd" clip-rule="evenodd" d="M31.8655 51.987C30.4549 52.0003 28.9072 52.0003 27.2006 52.0003H22.8002C22.3917 52.0003 21.9922 52.0003 21.6016 52.0001V46.8226C22.9363 47.1856 24.4239 47.3946 26.0004 47.3946C28.1829 47.3946 30.2023 47.0026 31.8655 46.3389V51.987Z" fill="#FF9054"/>
<path d="M31.8653 41.529C32.1328 41.602 32.3737 41.6409 32.5984 41.6598V38.2827C31.1765 37.178 31.172 35.3721 31.172 33.7106L31.171 33.668V31.9556L23.0676 31.9981L20.8682 32.7312C22.3345 34.3809 26.825 40.1544 31.8653 41.529Z" fill="#FDC88E"/>
<path d="M36.2642 22.4674C36.2642 28.3385 30.4252 35.664 26.0002 35.664C21.5753 35.664 15.7363 28.3385 15.7363 22.4674C15.7363 16.5964 20.3317 14.4028 26.0002 14.4028C31.6688 14.4028 36.2642 16.5964 36.2642 22.4674Z" fill="#FFE1B2"/>
<path d="M27.4662 10.7373C27.0543 10.7373 25.7169 11.2001 24.6238 11.6057L24.5336 11.4704C24.5336 11.4704 24.3828 11.589 24.1216 11.7944C23.5137 12.0253 23.0674 12.2035 23.0674 12.2035L23.2389 12.4894C20.4562 14.6818 14.1074 19.6971 13.5365 20.2681C12.8034 21.0012 17.9354 39.7059 17.9354 29.0658C17.9354 20.1765 22.874 18.4161 27.4662 17.3356C29.5434 16.8468 30.1544 15.6249 30.3987 14.4031C30.6432 13.1812 28.1994 10.7373 27.4662 10.7373Z" fill="#4E1E30"/>
<path d="M29.6654 15.1361C31.0095 19.9625 33.6977 22.1467 36.2179 22.7882C37.5989 23.1397 36.9969 18.8018 36.9969 18.8018C36.9969 18.8018 35.0418 13.792 34.7975 13.6698C34.5532 13.5476 32.5981 9.271 32.5981 9.271L28.1992 12.9367L29.6654 15.1361Z" fill="#4E1E30"/>
<path fill-rule="evenodd" clip-rule="evenodd" d="M23.5554 52.0001C14.7785 51.9999 10.2517 51.9825 6.93848 50.0871V47.3946C6.93848 42.9406 10.5492 39.33 15.0031 39.33H15.2474C18.1203 39.33 19.5202 38.5458 20.2069 37.4302L23.5554 52.0001Z" fill="#37CFD1"/>
<path fill-rule="evenodd" clip-rule="evenodd" d="M45.0623 50.0872C41.749 51.9825 37.2222 51.9999 28.4453 52.0001L31.7939 37.4302C32.4805 38.5458 33.8804 39.33 36.7533 39.33H36.9977C41.4516 39.33 45.0623 42.9406 45.0623 47.3946V50.0872Z" fill="#37CFD1"/>
<path d="M35.1717 22.5343C36.3713 22.2593 37.1572 22.8468 37.1572 24.0006C37.1572 25.528 35.544 29.27 33.8481 26.9331C32.1521 24.5962 35.1717 22.5343 35.1717 22.5343Z" fill="#FFE1B2"/>
</svg>
