<svg width="52" height="52" viewBox="0 0 52 52" fill="none" xmlns="http://www.w3.org/2000/svg">
<path d="M0 23.8C0 14.6344 0 10.0516 2.06304 6.68502C3.21742 4.80124 4.80124 3.21742 6.68502 2.06304C10.0516 0 14.6344 0 23.8 0H28.2003C37.3659 0 41.9487 0 45.3153 2.06304C47.1991 3.21742 48.7829 4.80124 49.9373 6.68502C52.0003 10.0516 52.0003 14.6344 52.0003 23.8V28.2003C52.0003 37.3659 52.0003 41.9487 49.9373 45.3153C48.7829 47.1991 47.1991 48.7829 45.3153 49.9373C41.9487 52.0003 37.3659 52.0003 28.2003 52.0003H23.8C14.6344 52.0003 10.0516 52.0003 6.68502 49.9373C4.80124 48.7829 3.21742 47.1991 2.06304 45.3153C0 41.9487 0 37.3659 0 28.2003V23.8Z" fill="#FFBB5D"/>
<path d="M33.8197 40.9105V35.0718H18.8057V40.9105L26.3127 47.5834L33.8197 40.9105Z" fill="#FFD7A3"/>
<path fill-rule="evenodd" clip-rule="evenodd" d="M48.0001 47.7982C47.199 48.6158 46.298 49.3348 45.3153 49.937C41.9487 52.0001 37.3659 52.0001 28.2003 52.0001H23.8C14.6344 52.0001 10.0516 52.0001 6.68502 49.937C5.95051 49.4869 5.2616 48.9715 4.62598 48.3985V46.8895C4.62598 45.3412 5.69112 43.9964 7.19832 43.6417L17.5199 41.2131C17.8131 41.1441 18.0713 40.9985 18.2793 40.8027L26.3131 45.9152L34.673 41.0386C34.8072 41.1141 34.9505 41.1764 35.1064 41.213L45.428 43.6416C46.9351 43.9962 48.0003 45.3411 48.0001 46.8895V47.7982Z" fill="#8B63E7"/>
<path d="M18.8057 35.0714V41.2318C28.2625 44.6389 33.8197 36.1116 33.8197 36.1116V35.0713H18.8057V35.0714Z" fill="#F0C290"/>
<path d="M15.4697 15.8867L16.1966 31.8779C16.2644 33.3718 16.997 34.7572 18.1933 35.6544L21.6421 38.2411C22.5085 38.8907 23.5621 39.2421 24.645 39.2421H27.9815C29.0644 39.2421 30.118 38.8908 30.9844 38.2411L34.4333 35.6544C35.6296 34.7571 36.3621 33.3719 36.4299 31.8779L37.1568 15.8867C37.1567 15.8867 15.4697 15.8867 15.4697 15.8867Z" fill="#FFE1B2"/>
<path fill-rule="evenodd" clip-rule="evenodd" d="M28.1837 52H24.4424L24.7491 47.5835H27.877L28.1837 52Z" fill="#5B5D6E"/>
<path d="M28.3991 45.915H24.2285V47.4849C24.2285 48 24.646 48.4174 25.1611 48.4174H27.4665C27.9816 48.4174 28.399 48 28.399 47.4849V45.915H28.3991Z" fill="#515262"/>
<path d="M18.6888 39.0535L26.313 45.9152C26.313 45.9152 24.1778 46.9931 21.5429 49.1657C20.9994 49.6138 20.1772 49.4322 19.8857 48.7909L16.3037 40.9106L17.4369 39.211C17.7189 38.7876 18.3108 38.7133 18.6888 39.0535Z" fill="white"/>
<path d="M33.9367 39.0535L26.3125 45.9152C26.3125 45.9152 28.4477 46.9931 31.0826 49.1657C31.6261 49.6138 32.4483 49.4322 32.7398 48.7909L36.3218 40.9106L35.1886 39.211C34.9066 38.7876 34.3147 38.7133 33.9367 39.0535Z" fill="white"/>
<path d="M31.3701 10.361L32.1521 15.887C35.7216 16.6009 36.236 22.2028 36.3101 23.8028C36.3235 24.0932 36.4162 24.3735 36.5738 24.6178L37.9357 26.7305C37.9357 26.7305 37.4696 23.2376 39.6039 20.8917C39.604 20.8917 40.3369 7.02445 31.3701 10.361Z" fill="#4E1E30"/>
<path d="M38.7721 26.3748L37.8305 30.1414C37.7189 30.5879 37.3178 30.9009 36.8575 30.9009C36.3517 30.9009 35.9252 30.5244 35.8624 30.0225L35.3808 26.17C35.2519 25.1388 36.0559 24.228 37.0951 24.228H37.0959C38.22 24.2281 39.0447 25.2843 38.7721 26.3748Z" fill="#FFE1B2"/>
<path d="M16.2697 8.86631L17.5034 9.70911C11.9252 13.8276 12.9678 20.8915 12.9678 20.8915C14.636 22.5598 14.636 26.7304 14.636 26.7304L16.3042 25.0622C16.3042 25.0622 15.6604 20.2431 18.8066 18.3892C21.726 16.6689 24.2805 17.5551 26.8871 17.5551C33.8728 17.5551 35.8278 14.9224 35.489 11.7163C35.3136 10.0573 32.7772 6.60165 26.3137 6.71154C23.7053 6.75586 18.8067 7.54565 16.2697 8.86631Z" fill="#66273F"/>
<path d="M15.783 16.825C15.783 16.825 14.8967 13.3321 17.5034 9.70898C11.9252 13.8275 12.9678 20.8914 12.9678 20.8914C14.636 22.5596 14.636 26.7303 14.636 26.7303L16.3042 25.062C16.3042 25.062 15.6604 20.243 18.8066 18.3891C21.726 16.6687 24.2805 17.555 26.8871 17.555C28.0232 17.555 29.0132 17.4789 29.8951 17.3485C24.5153 17.5288 21.3439 13.4537 15.783 16.825Z" fill="#4E1E30"/>
<path d="M13.8542 26.3748L14.7958 30.1414C14.9074 30.5879 15.3085 30.9009 15.7687 30.9009C16.2746 30.9009 16.7011 30.5244 16.7639 30.0225L17.2455 26.17C17.3744 25.1388 16.5704 24.228 15.5312 24.228H15.5304C14.4063 24.2281 13.5816 25.2843 13.8542 26.3748Z" fill="#FFE1B2"/>
</svg>
