<svg width="52" height="52" viewBox="0 0 52 52" fill="none" xmlns="http://www.w3.org/2000/svg">
<path d="M0 23.8C0 14.6344 0 10.0516 2.06304 6.68502C3.21742 4.80124 4.80124 3.21742 6.68502 2.06304C10.0516 0 14.6344 0 23.8 0H28.2003C37.3659 0 41.9487 0 45.3153 2.06304C47.1991 3.21742 48.7829 4.80124 49.9373 6.68502C52.0003 10.0516 52.0003 14.6344 52.0003 23.8V28.2003C52.0003 37.3659 52.0003 41.9487 49.9373 45.3153C48.7829 47.1991 47.1991 48.7829 45.3153 49.9373C41.9487 52.0003 37.3659 52.0003 28.2003 52.0003H23.8C14.6344 52.0003 10.0516 52.0003 6.68502 49.9373C4.80124 48.7829 3.21742 47.1991 2.06304 45.3153C0 41.9487 0 37.3659 0 28.2003V23.8Z" fill="white"/>
<path opacity="0.2" d="M0 23.8C0 14.6344 0 10.0516 2.06304 6.68502C3.21742 4.80124 4.80124 3.21742 6.68502 2.06304C10.0516 0 14.6344 0 23.8 0H28.2003C37.3659 0 41.9487 0 45.3153 2.06304C47.1991 3.21742 48.7829 4.80124 49.9373 6.68502C52.0003 10.0516 52.0003 14.6344 52.0003 23.8V28.2003C52.0003 37.3659 52.0003 41.9487 49.9373 45.3153C48.7829 47.1991 47.1991 48.7829 45.3153 49.9373C41.9487 52.0003 37.3659 52.0003 28.2003 52.0003H23.8C14.6344 52.0003 10.0516 52.0003 6.68502 49.9373C4.80124 48.7829 3.21742 47.1991 2.06304 45.3153C0 41.9487 0 37.3659 0 28.2003V23.8Z" fill="#37CFD1"/>
<path d="M19.4135 32H21.4655V23.432L25.2995 32H26.7215L30.5375 23.432V32H32.5895V19.49H30.3935L26.0195 29.3L21.6275 19.49H19.4135V32Z" fill="#37CFD1"/>
</svg>
