<svg width="52" height="52" viewBox="0 0 52 52" fill="none" xmlns="http://www.w3.org/2000/svg">
<path d="M0 23.8C0 14.6344 0 10.0516 2.06304 6.68502C3.21742 4.80124 4.80124 3.21742 6.68502 2.06304C10.0516 0 14.6344 0 23.8 0H28.2003C37.3659 0 41.9487 0 45.3153 2.06304C47.1991 3.21742 48.7829 4.80124 49.9373 6.68502C52.0003 10.0516 52.0003 14.6344 52.0003 23.8V28.2003C52.0003 37.3659 52.0003 41.9487 49.9373 45.3153C48.7829 47.1991 47.1991 48.7829 45.3153 49.9373C41.9487 52.0003 37.3659 52.0003 28.2003 52.0003H23.8C14.6344 52.0003 10.0516 52.0003 6.68502 49.9373C4.80124 48.7829 3.21742 47.1991 2.06304 45.3153C0 41.9487 0 37.3659 0 28.2003V23.8Z" fill="#37CFD1"/>
<path d="M37.3388 17.2237V25.6925C37.3388 25.8149 37.3361 25.9374 37.3331 26.0598C37.3304 26.16 37.3277 26.2575 37.322 26.358C37.3193 26.4471 37.3136 26.5363 37.3052 26.6254C37.3025 26.6893 37.2968 26.7535 37.2914 26.8174C37.2884 26.8567 37.2857 26.8924 37.28 26.9317C37.2746 27.0013 37.2689 27.0736 37.2578 27.1433C37.2467 27.2768 37.2299 27.4079 37.2104 27.5414C37.2077 27.575 37.202 27.6083 37.1966 27.6416C37.1882 27.7085 37.1771 27.7754 37.166 27.8421V27.8505C37.1494 27.9477 37.1327 28.0425 37.1159 28.14C37.0907 28.2736 37.0658 28.4074 37.0379 28.5382C37.0351 28.5439 37.0351 28.5496 37.0324 28.5553C37.0297 28.5745 37.0267 28.5943 37.0213 28.6138C37.0186 28.6195 37.0186 28.6249 37.0156 28.6306C37.0018 28.7032 36.985 28.7725 36.9682 28.8421C36.9628 28.8727 36.9571 28.9036 36.946 28.9342C36.9376 28.9843 36.9235 29.0342 36.9127 29.0845C36.9043 29.1124 36.8989 29.143 36.8875 29.1707C36.8818 29.1959 36.8737 29.221 36.868 29.2433C36.8095 29.4716 36.7426 29.6945 36.673 29.9172C36.6394 30.0231 36.6061 30.126 36.5701 30.2319C36.5674 30.243 36.5617 30.2541 36.559 30.2652C36.5256 30.36 36.4921 30.4546 36.4587 30.5494C36.4476 30.5773 36.4365 30.6049 36.4254 30.6355C36.3918 30.7246 36.3585 30.8137 36.3225 30.9028C36.2808 31.0112 36.2361 31.1171 36.1917 31.2233C36.1527 31.3181 36.111 31.4123 36.0692 31.5071C36.0638 31.5242 36.0554 31.5377 36.0497 31.5545C36.0023 31.6548 35.9579 31.755 35.9105 31.8528C35.8631 31.9557 35.813 32.0589 35.7602 32.1621C35.66 32.3652 35.5514 32.5686 35.4427 32.7661L35.2924 33.0334C34.8634 33.7715 34.3875 34.4647 33.8693 35.1053C33.7997 35.1971 33.7274 35.2862 33.6521 35.3724C33.5491 35.4978 33.4432 35.6202 33.3373 35.7399C33.2425 35.8458 33.148 35.9515 33.0505 36.0547C32.7831 36.3415 32.5101 36.6143 32.2317 36.8708C32.1759 36.9263 32.1176 36.9767 32.0591 37.0295C31.9643 37.1156 31.8698 37.1993 31.7723 37.28C31.6972 37.3469 31.6192 37.4109 31.541 37.4751C31.3405 37.6392 31.1401 37.7979 30.9367 37.9456C30.8532 38.0097 30.7668 38.071 30.6804 38.1295C30.5412 38.2297 30.399 38.3245 30.2571 38.4166C30.1791 38.4694 30.0983 38.5195 30.0176 38.5669C29.7335 38.7422 29.4466 38.9039 29.1625 39.0431C29.0929 39.0794 29.0233 39.113 28.9537 39.1463C28.8841 39.1796 28.8117 39.2132 28.7364 39.2465C28.6446 39.2882 28.5525 39.3272 28.4607 39.3635C28.4244 39.38 28.3884 39.3941 28.3521 39.4052C28.2435 39.4499 28.1321 39.4914 28.0235 39.5277C27.8873 39.578 27.7478 39.6198 27.6115 39.6585C27.5167 39.6864 27.4195 39.7113 27.3247 39.7335C27.319 39.7365 27.3136 39.7392 27.3052 39.7392C27.2104 39.7617 27.1159 39.7839 27.0211 39.8007C26.9961 39.8064 26.9709 39.8118 26.946 39.8148C26.868 39.8286 26.79 39.8427 26.712 39.8511C26.6007 39.8679 26.4891 39.8817 26.3778 39.8871C26.3388 39.8928 26.3027 39.8955 26.2637 39.8955C26.1746 39.9009 26.0855 39.9039 25.9991 39.9039H25.9907C25.9046 39.9039 25.8182 39.9009 25.7317 39.8955C25.6984 39.8955 25.6648 39.8928 25.6315 39.8871C25.5535 39.8844 25.4728 39.876 25.3891 39.8649C25.3726 39.8649 25.3531 39.8622 25.3363 39.8592C25.2334 39.8454 25.1302 39.8286 25.0245 39.8091C24.9354 39.795 24.8463 39.7755 24.7542 39.7533C24.278 39.6447 23.788 39.4803 23.2924 39.2606C22.869 39.074 22.4402 38.8483 22.0142 38.5867C21.7999 38.4559 21.5854 38.3166 21.3736 38.169C21.2677 38.0937 21.162 38.0184 21.0561 37.9404C20.7246 37.698 20.396 37.4336 20.0731 37.1495C19.984 37.0688 19.8949 36.9881 19.8058 36.9046C19.7167 36.8239 19.6276 36.7402 19.5412 36.6595C19.3239 36.4507 19.1124 36.2337 18.9063 36.0081C18.8255 35.9217 18.7448 35.8328 18.6638 35.7407C18.4412 35.4902 18.224 35.2312 18.0178 34.9609C17.9371 34.8637 17.8618 34.7635 17.7868 34.663C17.5054 34.2897 17.2383 33.8999 16.9875 33.4958C16.9206 33.3875 16.8537 33.2761 16.7897 33.1673C16.7117 33.0364 16.6367 32.9026 16.5614 32.7691C16.283 32.2677 16.0267 31.7471 15.8041 31.2095C15.7705 31.1314 15.7372 31.0534 15.7093 30.9757C15.6648 30.8755 15.6258 30.7723 15.5895 30.6721C15.5337 30.5244 15.4809 30.3768 15.4308 30.2292C15.3807 30.0816 15.3333 29.931 15.2859 29.7809C15.2415 29.636 15.1998 29.4914 15.1608 29.3437C15.1161 29.1877 15.0744 29.029 15.0381 28.8676C15.0354 28.8508 15.0297 28.834 15.027 28.8172C14.9741 28.5945 14.9267 28.3689 14.885 28.1406C14.8292 27.8399 14.7848 27.5336 14.7515 27.2242C14.7374 27.127 14.729 27.0292 14.7209 26.932C14.7098 26.8288 14.7014 26.7286 14.6957 26.6256C14.6819 26.439 14.6735 26.2494 14.6678 26.0601C14.6651 25.9376 14.6621 25.8152 14.6621 25.6928V17.2237C14.6621 10.9659 19.7332 5.89214 25.9907 5.88672H26.0021C26.8653 5.88672 27.7063 5.98396 28.5138 6.16517C29.2519 6.33202 29.9621 6.57173 30.6357 6.8751C31.5548 7.28708 32.4096 7.81662 33.1783 8.44881C33.8246 8.97781 34.4121 9.57371 34.9246 10.2311C36.4173 12.1331 37.3166 14.5227 37.3361 17.1235C37.3388 17.1568 37.3388 17.1901 37.3388 17.2237Z" fill="#FFE1B2"/>
<path fill-rule="evenodd" clip-rule="evenodd" d="M39.6591 51.6654C36.8396 52.0008 33.2023 52.0008 28.1998 52.0008H23.7995C18.7974 52.0008 15.1603 52.0008 12.3408 51.6655C12.4402 51.4215 12.5486 51.1822 12.6618 50.9455C13.1491 49.9179 13.7564 48.9568 14.4609 48.0771C14.6391 47.8569 14.8201 47.6423 15.0067 47.4365C15.0935 47.3364 15.1853 47.2392 15.2774 47.1418L15.2935 47.1247C15.3908 47.0245 15.4886 46.9243 15.5885 46.8241C16.0872 46.3254 16.6216 45.869 17.1844 45.4484C17.4656 45.2395 17.7497 45.0445 18.045 44.8554C18.3402 44.6688 18.6409 44.4903 18.9472 44.3235C18.9529 44.318 18.9583 44.318 18.9583 44.318C19.078 44.2538 19.195 44.1842 19.3121 44.1119C19.6601 43.9031 19.9944 43.6718 20.3118 43.4158C21.6569 42.3464 22.6984 40.9092 23.2916 39.2608C23.6453 38.2748 23.8374 37.2138 23.8374 36.1055L25.9899 36.1166L28.204 36.128C28.204 37.2222 28.3906 38.2721 28.7359 39.2469C29.3207 40.9011 30.3595 42.3437 31.7046 43.4185C31.905 43.5829 32.1084 43.7332 32.3227 43.8755C32.3452 43.892 32.3644 43.9058 32.3869 43.9199C32.4871 43.9868 32.5873 44.0534 32.6932 44.1149C32.8073 44.1845 32.9243 44.2541 33.0413 44.3183C33.0608 44.3237 33.0776 44.3321 33.0914 44.3432C33.3365 44.4797 33.5787 44.6217 33.8154 44.7693C33.9297 44.8389 34.0438 44.9112 34.1551 44.9919C34.3864 45.1396 34.6118 45.3013 34.832 45.4684C34.832 45.4711 34.8347 45.4711 34.8347 45.4711H34.8374C35.1188 45.6799 35.3916 45.9029 35.6589 46.1312C35.9263 46.3598 36.1825 46.599 36.4303 46.8471C37.8035 48.2141 38.9078 49.8481 39.6591 51.6654Z" fill="#F0C290"/>
<path fill-rule="evenodd" clip-rule="evenodd" d="M39.6593 51.6652C36.8398 52.0006 33.2026 52.0006 28.2003 52.0006H23.8C18.797 52.0006 15.1595 52.0006 12.3398 51.665C12.4394 51.4208 12.5481 51.1812 12.6615 50.9439C13.1488 49.9165 13.7558 48.9555 14.4606 48.0754C14.6388 47.8555 14.82 47.641 15.0064 47.4351C15.0982 47.3292 15.1957 47.2263 15.2932 47.1234C15.3907 47.0231 15.4882 46.9229 15.5885 46.8227C16.0868 46.324 16.6215 45.8676 17.1841 45.447C17.4655 45.2382 17.7494 45.0431 18.0446 44.8538C18.1977 44.7566 18.351 44.6618 18.5067 44.5699C18.6516 44.4835 18.7993 44.3998 18.9469 44.3191C18.9526 44.3134 18.958 44.3164 18.958 44.3164V44.3134C19.0777 44.2465 19.1947 44.1799 19.3117 44.11C19.6598 43.8985 19.994 43.6644 20.3058 43.4082C20.3085 43.4112 20.3085 43.4112 20.3115 43.4139L20.3115 43.4139C21.7541 44.8898 23.762 45.8062 25.9899 45.8118H26.0124C28.2402 45.8118 30.2562 44.8928 31.7045 43.4169L31.7073 43.4139C31.905 43.5783 32.1111 43.7316 32.3227 43.8735C32.3449 43.8901 32.3644 43.9039 32.3866 43.918C32.4784 43.9793 32.5728 44.0381 32.6671 44.0969L32.6929 44.113C32.807 44.1826 32.9242 44.2495 33.041 44.3134C33.0541 44.3173 33.0648 44.3236 33.0755 44.3299C33.0806 44.3329 33.0857 44.3359 33.0911 44.3386C33.2219 44.4112 33.3557 44.4862 33.4838 44.564C33.5954 44.6309 33.7068 44.6978 33.8154 44.7674C33.9294 44.837 34.0437 44.9093 34.155 44.99C34.3864 45.1377 34.6117 45.2994 34.8317 45.4665H34.8373C35.1185 45.678 35.3942 45.8982 35.6589 46.129C35.9262 46.3576 36.1825 46.5971 36.4303 46.8449C37.8037 48.2126 38.9081 49.8472 39.6593 51.6652Z" fill="#FF9054"/>
<path d="M37.3388 25.6924C37.3388 25.8148 37.3361 25.9372 37.3331 26.0597C37.3304 26.1599 37.3277 26.2574 37.322 26.3579C37.3193 26.447 37.3136 26.5361 37.3052 26.6252C37.3025 26.6892 37.2968 26.7534 37.2914 26.8173C37.2884 26.8566 37.2857 26.8923 37.28 26.9316C37.2746 27.0012 37.2689 27.0735 37.2578 27.1431C37.2437 27.2767 37.2299 27.4102 37.2104 27.5413C37.2077 27.5749 37.202 27.6082 37.1966 27.6415C37.1882 27.7084 37.1771 27.7753 37.166 27.842C37.1522 27.9422 37.1327 28.0424 37.1159 28.1402C37.0936 28.2572 37.0712 28.3712 37.0462 28.4853C37.0433 28.5104 37.0379 28.5327 37.0322 28.5551C37.0295 28.5744 37.0238 28.5941 37.0211 28.6136C37.0183 28.6193 37.0184 28.6247 37.0154 28.6304C37.0154 28.6443 37.0127 28.6556 37.01 28.6667C36.9961 28.7252 36.9848 28.7837 36.9682 28.842C36.9628 28.8726 36.9571 28.9035 36.946 28.9341C36.9347 28.9896 36.9208 29.0424 36.9043 29.0955C36.9016 29.1207 36.8959 29.1459 36.8875 29.1705C36.8818 29.1957 36.8737 29.2209 36.868 29.2431C36.8095 29.4715 36.7426 29.6944 36.673 29.917C36.6394 30.0229 36.6061 30.1259 36.5701 30.2318C36.5674 30.2429 36.5617 30.254 36.559 30.2651C36.5256 30.3599 36.4921 30.4544 36.4587 30.5492C36.4476 30.5771 36.4365 30.6048 36.4254 30.6354C36.3918 30.7245 36.3585 30.8136 36.3225 30.9027C36.2808 31.0111 36.2361 31.117 36.1917 31.2231C36.1527 31.3179 36.111 31.4122 36.0692 31.507C36.0638 31.5241 36.0554 31.5376 36.0497 31.5544C36.0023 31.6546 35.9579 31.7548 35.9105 31.8526C35.8631 31.9556 35.813 32.0588 35.7602 32.162C35.66 32.3651 35.5514 32.5685 35.4427 32.766L35.2924 33.0333C34.8634 33.7714 34.3875 34.4646 33.8693 35.1052C33.7997 35.197 33.7274 35.2861 33.6521 35.3722C33.5491 35.4976 33.4432 35.6201 33.3373 35.7398C33.2425 35.8457 33.148 35.9513 33.0505 36.0545C32.7831 36.3414 32.5101 36.6141 32.2317 36.8706C32.1759 36.9262 32.1176 36.9765 32.0591 37.0294C31.9643 37.1155 31.8698 37.1992 31.7723 37.2799C31.6972 37.3468 31.6192 37.4107 31.541 37.4749C31.3405 37.6391 31.1401 37.7978 30.9367 37.9454C30.8532 38.0096 30.7668 38.0708 30.6804 38.1293C30.5412 38.2296 30.399 38.3244 30.2571 38.4165C30.1791 38.4693 30.0983 38.5194 30.0176 38.5668C29.7335 38.742 29.4466 38.9037 29.1625 39.043C29.0929 39.0793 29.0233 39.1128 28.9537 39.1462C28.8841 39.1795 28.8117 39.2131 28.7364 39.2464C28.6446 39.2881 28.5525 39.3271 28.4607 39.3634C28.4244 39.3799 28.3884 39.394 28.3521 39.4051C28.2435 39.4498 28.1321 39.4912 28.0235 39.5275C27.8873 39.5779 27.7478 39.6196 27.6115 39.6584C27.5167 39.6863 27.4195 39.7112 27.3247 39.7334C27.319 39.7364 27.3136 39.7391 27.3052 39.7391C27.2104 39.7616 27.1159 39.7838 27.0211 39.8006C26.9961 39.8063 26.9709 39.8117 26.946 39.8147C26.868 39.8285 26.79 39.8426 26.712 39.8509C26.6007 39.8677 26.4891 39.8816 26.3778 39.887C26.3388 39.8927 26.3027 39.8954 26.2637 39.8954C26.1746 39.9008 26.0855 39.9038 25.9991 39.9038H25.9907C25.9046 39.9038 25.8182 39.9008 25.7317 39.8954C25.6984 39.8954 25.6648 39.8927 25.6315 39.887C25.5535 39.8843 25.4728 39.8759 25.3891 39.8648C25.3726 39.8648 25.3531 39.8621 25.3363 39.8591C25.2334 39.8453 25.1302 39.8285 25.0245 39.809C24.9354 39.7949 24.8463 39.7754 24.7542 39.7532C24.278 39.6445 23.788 39.4801 23.2924 39.2605C22.869 39.0738 22.4402 38.8482 22.0142 38.5866C21.7999 38.4584 21.5881 38.3192 21.3736 38.1689C21.2677 38.0936 21.162 38.0183 21.0561 37.9403C20.7246 37.6979 20.396 37.4335 20.0731 37.1494C19.984 37.0686 19.8949 36.9879 19.8058 36.9045C19.7167 36.8238 19.6276 36.7401 19.5412 36.6594C19.3239 36.4505 19.1124 36.2336 18.9063 36.0079C18.8255 35.9215 18.7448 35.8327 18.6638 35.7406C18.4412 35.49 18.224 35.2311 18.0178 34.9608C17.9371 34.8635 17.8618 34.7633 17.7868 34.6628C17.5054 34.2896 17.2383 33.8998 16.9875 33.4957C16.9206 33.3873 16.8537 33.276 16.7897 33.1671C16.7117 33.0363 16.6367 32.9025 16.5614 32.769C16.283 32.2676 16.0267 31.747 15.8041 31.2093C15.7705 31.1313 15.7372 31.0533 15.7093 30.9756C15.6648 30.8754 15.6258 30.7722 15.5895 30.6719C15.5337 30.5243 15.4809 30.3767 15.4308 30.2291C15.3807 30.0815 15.3333 29.9308 15.2859 29.7808C15.2415 29.6359 15.1998 29.4912 15.1608 29.3436C15.1161 29.1876 15.0744 29.0289 15.0381 28.8674C15.0354 28.8506 15.0297 28.8339 15.027 28.8171C14.9741 28.5944 14.9267 28.3688 14.885 28.1404C14.8292 27.8398 14.7848 27.5334 14.7515 27.2241C14.7374 27.1269 14.729 27.0291 14.7209 26.9319C14.7098 26.8287 14.7014 26.7284 14.6957 26.6255C14.6819 26.4389 14.6735 26.2493 14.6678 26.0599C14.6651 25.9375 14.6621 25.8151 14.6621 25.6927L16.4723 29.2518L19.5829 30.608L23.2612 30.939H23.2639L25.9902 31.1868H26.0069L28.5577 31.4179C28.5577 31.4179 28.5577 31.4152 28.5604 31.4179L34.2499 31.9306L37.3388 25.6924Z" fill="#4E1E30"/>
<path d="M26.0132 27.4805L26.0105 30.2236V30.2263L26.0078 31.1873V31.9419L26.005 34.4482V34.4512L26.0023 34.4482H25.9996L25.9912 34.4425L15.0381 28.8674C15.0354 28.8506 15.0297 28.8338 15.027 28.817C14.9741 28.5943 14.9267 28.3687 14.885 28.1404C14.8292 27.8397 14.7848 27.5334 14.7515 27.224C14.7374 27.1268 14.729 27.029 14.7209 26.9318C14.7098 26.8286 14.7014 26.7284 14.6957 26.6254C14.6819 26.4388 14.6735 26.2492 14.6678 26.0599C14.6651 25.9374 14.6621 25.815 14.6621 25.6926V22.3647C14.6621 22.4121 14.6648 22.4595 14.6648 22.5067C14.687 23.3114 14.8151 24.1969 15.063 25.1021C15.2553 25.7982 15.4945 26.4415 15.7732 27.0152V27.0179C16.5029 28.5358 17.4804 29.5659 18.3797 29.733C18.4355 29.7414 18.4937 29.7471 18.5495 29.7525C18.8976 29.7915 19.2625 29.8138 19.6384 29.8138C21.0588 29.8138 22.3202 28.6721 23.1139 28.2097C23.1195 28.207 23.125 28.204 23.1306 28.2016C23.1724 28.1764 23.2141 28.1512 23.2504 28.1263C23.2615 28.1182 23.2726 28.1125 23.284 28.107C23.9522 27.7254 24.9159 27.483 25.9907 27.4805H26.0132Z" fill="#4E1E30"/>
<path d="M37.3413 22.3633L37.3386 25.6911C37.3386 26.5264 37.2606 27.3453 37.1159 28.1389C37.0574 28.4563 36.9905 28.7711 36.9125 29.0829L34.342 32.795L26.004 34.4465H26.0013L25.9986 34.4495V34.4465L25.9902 27.4777H26.0127C27.0875 27.4807 28.0539 27.7229 28.7222 28.1042C28.7335 28.1099 28.7417 28.1153 28.7528 28.1237C28.7918 28.1486 28.8335 28.1738 28.8755 28.1988C28.8782 28.2015 28.8839 28.2044 28.8893 28.2072C29.6856 28.6692 30.9443 29.812 32.3647 29.812C32.7407 29.812 33.1055 29.7898 33.4536 29.7508C33.5121 29.7451 33.5676 29.7397 33.6261 29.7313C34.523 29.5642 35.5032 28.5338 36.2299 27.0162V27.0135C36.5084 26.4398 36.7478 25.7965 36.9402 25.1004C37.1907 24.181 37.3218 23.2845 37.3383 22.4686C37.3413 22.4329 37.3413 22.3993 37.3413 22.3633Z" fill="#4E1E30"/>
<path d="M25.9994 31.9419C27.5335 31.9419 28.7771 31.5574 28.7771 31.083C28.7771 30.6087 27.5335 30.2241 25.9994 30.2241C24.4653 30.2241 23.2217 30.6087 23.2217 31.083C23.2217 31.5574 24.4653 31.9419 25.9994 31.9419Z" fill="#F0C290"/>
<path d="M26.0015 5.88672H25.9907C19.7332 5.89241 14.6621 10.9662 14.6621 17.2237V22.2228C14.6621 22.2228 15.1326 19.24 16.4 17.792C17.7757 16.2185 17.4276 13.8263 20.5133 13.8263C22.5044 13.8263 22.6157 14.5614 25.9883 14.5614H25.991H26.0018H26.0045C29.377 14.5614 29.4884 13.8263 31.4795 13.8263C34.5651 13.8263 34.2168 16.2183 35.5928 17.792C36.8599 19.24 37.3304 22.2228 37.3304 22.2228V17.2237C37.3301 10.9662 32.259 5.89214 26.0015 5.88672Z" fill="#4E1E30"/>
<path d="M33.4839 44.5635L33.1776 44.8755C31.2672 46.8219 28.7162 47.8943 25.9954 47.8943C23.2469 47.8886 20.7014 46.8138 18.7994 44.8701L18.5068 44.5694C18.6517 44.483 18.7994 44.3993 18.947 44.3186C18.9527 44.3129 18.9581 44.3159 18.9581 44.3159V44.3129C19.0778 44.246 19.1948 44.1794 19.3118 44.1095C19.6599 43.898 19.9941 43.664 20.3059 43.4077C20.3086 43.4107 20.3086 43.4107 20.3116 43.4134C21.7542 44.8893 23.7621 45.8057 25.99 45.8114H26.0125C28.2403 45.8114 30.2563 44.8923 31.7046 43.4164L31.7074 43.4134C31.9051 43.5778 32.1112 43.7311 32.3228 43.8731C32.345 43.8896 32.3645 43.9034 32.3867 43.9175C32.4869 43.9844 32.5901 44.0483 32.693 44.1125C32.8071 44.1821 32.9243 44.249 33.0411 44.3129C33.0606 44.3186 33.0747 44.3297 33.0912 44.3381C33.2223 44.4107 33.3558 44.4858 33.4839 44.5635Z" fill="#CC784A"/>
</svg>
