<svg width="18" height="18" viewBox="0 0 18 18" fill="none" xmlns="http://www.w3.org/2000/svg">
<path fill-rule="evenodd" clip-rule="evenodd" d="M14.699 1.85019C14.5086 1.85019 14.32 1.8877 14.1441 1.96058C13.9681 2.03346 13.8083 2.14028 13.6736 2.27494L12.3832 3.56534L14.4341 5.61622L15.7245 4.32582C15.8591 4.19115 15.966 4.03129 16.0388 3.85534C16.1117 3.6794 16.1492 3.49082 16.1492 3.30038C16.1492 3.10994 16.1117 2.92136 16.0388 2.74542C15.966 2.56947 15.8591 2.40961 15.7245 2.27494C15.5898 2.14028 15.4299 2.03346 15.254 1.96058C15.078 1.8877 14.8895 1.85019 14.699 1.85019ZM13.2673 6.78294L11.2165 4.73207L2.96912 12.9794L2.20004 15.7994L5.01999 15.0303L13.2673 6.78294ZM13.5126 0.436183C13.8888 0.280384 14.2919 0.200195 14.699 0.200195C15.1062 0.200195 15.5093 0.280384 15.8854 0.436183C16.2616 0.591982 16.6033 0.82034 16.8912 1.10822C17.1791 1.3961 17.4074 1.73786 17.5632 2.11399C17.719 2.49012 17.7992 2.89326 17.7992 3.30038C17.7992 3.7075 17.719 4.11064 17.5632 4.48677C17.4074 4.8629 17.1791 5.20466 16.8912 5.49254L6.0318 16.3519C5.93028 16.4535 5.80402 16.5267 5.66551 16.5645L1.24131 17.7711C0.955684 17.849 0.650218 17.7679 0.440875 17.5585C0.231531 17.3492 0.15041 17.0437 0.228308 16.7581L1.43491 12.3339C1.47268 12.1954 1.54595 12.0691 1.64747 11.9676L12.5069 1.10822C12.7947 0.82034 13.1365 0.591982 13.5126 0.436183Z" fill="#818386"/>
</svg>
