<svg width="18" height="18" viewBox="0 0 18 18" fill="none" xmlns="http://www.w3.org/2000/svg">
<path fill-rule="evenodd" clip-rule="evenodd" d="M12.1323 1.70877C11.5136 1.70877 10.9193 1.9574 10.4804 2.40144L3.38877 9.57642C2.66014 10.3136 2.25 11.3144 2.25 12.3589C2.25 13.4034 2.66014 14.4042 3.38877 15.1413C4.11725 15.8784 5.10432 16.2916 6.1326 16.2916C7.16088 16.2916 8.14795 15.8784 8.87643 15.1413L15.9681 7.96637C16.2601 7.67093 16.735 7.6695 17.0287 7.96318C17.3225 8.25687 17.3239 8.73445 17.0319 9.0299L9.94026 16.2049C8.93117 17.2258 7.56161 17.8002 6.1326 17.8002C4.70359 17.8002 3.33403 17.2258 2.32494 16.2049C1.31601 15.1841 0.75 13.8006 0.75 12.3589C0.75 10.9172 1.31601 9.53368 2.32494 8.51289L9.4166 1.33792C10.1361 0.609974 11.1129 0.200195 12.1323 0.200195C13.1518 0.200195 14.1286 0.609974 14.8481 1.33792C15.5674 2.06571 15.9707 3.05185 15.9707 4.07916C15.9707 5.10648 15.5674 6.09262 14.8481 6.82041L7.74871 13.9954C7.74862 13.9955 7.74881 13.9953 7.74871 13.9954C7.31884 14.4302 6.73466 14.6755 6.12488 14.6755C5.51497 14.6755 4.93095 14.4303 4.50106 13.9954C4.07131 13.5606 3.83068 12.9718 3.83068 12.3589C3.83068 11.7459 4.07131 11.1572 4.50106 10.7224L11.0529 4.10141C11.345 3.80614 11.8199 3.80499 12.1135 4.09885C12.4071 4.39271 12.4082 4.87029 12.1161 5.16557L5.56488 11.7859C5.41544 11.9371 5.33068 12.1431 5.33068 12.3589C5.33068 12.5746 5.41544 12.7807 5.56488 12.9319C5.71418 13.0829 5.9157 13.1669 6.12488 13.1669C6.33406 13.1669 6.53559 13.0829 6.68488 12.9319L13.7843 5.75689C14.2233 5.3127 14.4707 4.70929 14.4707 4.07916C14.4707 3.44904 14.2233 2.84564 13.7843 2.40144C13.3454 1.9574 12.7511 1.70877 12.1323 1.70877Z" fill="#818386"/>
</svg>
