<svg width="18" height="18" viewBox="0 0 18 18" fill="none" xmlns="http://www.w3.org/2000/svg">
<path fill-rule="evenodd" clip-rule="evenodd" d="M8.99922 0.200195C4.13906 0.200195 0.199219 4.14003 0.199219 9.00019C0.199219 13.8603 4.13906 17.8002 8.99922 17.8002C13.8585 17.8002 17.7992 13.8603 17.7992 8.99928C17.7992 4.14003 13.8585 0.200195 8.99922 0.200195ZM8.99922 15.9659C5.15197 15.9659 2.03256 12.8474 2.03256 8.99928C2.03256 5.15111 5.15106 2.03353 8.99922 2.03353C12.8465 2.03353 15.9668 5.15203 15.9668 9.0002C15.9668 12.8483 12.8465 15.9659 8.99922 15.9659ZM8.08256 7.16686C8.08256 8.05328 7.46747 8.77103 6.70847 8.77103C5.94856 8.77103 5.33256 8.05328 5.33256 7.16686C5.33256 6.28045 5.94856 5.5627 6.70756 5.5627C7.46656 5.5627 8.08256 6.28045 8.08256 7.16686ZM11.2908 8.77103C12.0508 8.77103 12.6658 8.05328 12.6658 7.16686C12.6658 6.28045 12.0498 5.5627 11.2908 5.5627C10.5319 5.5627 9.91588 6.28136 9.91588 7.16686C9.91588 8.05236 10.5319 8.77103 11.2908 8.77103ZM12.0545 10.5182C12.2313 10.1854 12.6457 10.0544 12.9785 10.2249C13.314 10.3972 13.4496 10.8033 13.281 11.1397C13.2361 11.2304 12.1397 13.3534 9.00013 13.3534C5.86147 13.3534 4.76331 11.2313 4.71747 11.1406C4.54788 10.8005 4.68538 10.388 5.02456 10.2175C5.36556 10.0479 5.77256 10.1845 5.94488 10.5191C5.98338 10.5915 6.75338 11.9784 9.00013 11.9784C11.2578 11.9784 12.0233 10.5787 12.0545 10.5182Z" fill="#818386"/>
</svg>
