<svg width="18" height="18" viewBox="0 0 18 18" fill="none" xmlns="http://www.w3.org/2000/svg">
<path fill-rule="evenodd" clip-rule="evenodd" d="M2.0498 7.8998C2.0498 4.66894 4.66894 2.0498 7.8998 2.0498C11.1307 2.0498 13.7498 4.66894 13.7498 7.8998C13.7498 11.1307 11.1307 13.7498 7.8998 13.7498C4.66894 13.7498 2.0498 11.1307 2.0498 7.8998ZM7.8998 0.549805C3.84051 0.549805 0.549805 3.84051 0.549805 7.8998C0.549805 11.9591 3.84051 15.2498 7.8998 15.2498C9.65932 15.2498 11.2744 14.6315 12.5397 13.6004L16.444 17.5046C16.7369 17.7975 17.2117 17.7975 17.5046 17.5046C17.7975 17.2117 17.7975 16.7369 17.5046 16.444L13.6004 12.5397C14.6315 11.2744 15.2498 9.65932 15.2498 7.8998C15.2498 3.84051 11.9591 0.549805 7.8998 0.549805Z" fill="#818386"/>
</svg>
