<svg width="18" height="4" viewBox="0 0 18 4" fill="none" xmlns="http://www.w3.org/2000/svg">
<path fill-rule="evenodd" clip-rule="evenodd" d="M4.05 2.0001C4.05 2.91137 3.31127 3.6501 2.4 3.6501C1.48873 3.6501 0.75 2.91137 0.75 2.0001C0.75 1.08883 1.48873 0.350098 2.4 0.350098C3.31127 0.350098 4.05 1.08883 4.05 2.0001ZM10.65 2.0001C10.65 2.91137 9.91127 3.6501 9 3.6501C8.08873 3.6501 7.35 2.91137 7.35 2.0001C7.35 1.08883 8.08873 0.350098 9 0.350098C9.91127 0.350098 10.65 1.08883 10.65 2.0001ZM15.6 3.6501C16.5113 3.6501 17.25 2.91137 17.25 2.0001C17.25 1.08883 16.5113 0.350098 15.6 0.350098C14.6887 0.350098 13.95 1.08883 13.95 2.0001C13.95 2.91137 14.6887 3.6501 15.6 3.6501Z" fill="#818386"/>
</svg>
