<svg width="22" height="22" viewBox="0 0 22 22" fill="none" xmlns="http://www.w3.org/2000/svg">
<path d="M18.6203 0.757508L1.84001 7.69592C1.13306 7.9882 0.659825 8.64384 0.604905 9.40683C0.550043 10.1699 0.924574 10.8865 1.58237 11.277L6.39156 13.975C7.12762 13.2389 12.8071 9.19263 12.8071 9.19263C12.8071 9.19263 8.76082 14.8721 8.02475 15.6082L10.7227 20.4173C11.1132 21.0751 11.8298 21.4497 12.5929 21.3948C13.3574 21.3397 14.012 20.8653 14.3038 20.1597L21.2422 3.37943C21.5581 2.61543 21.3912 1.77769 20.8066 1.1931C20.222 0.608509 19.3843 0.441541 18.6203 0.757508Z" fill="white"/>
</svg>
