<svg width="17" height="18" viewBox="0 0 17 18" fill="none" xmlns="http://www.w3.org/2000/svg">
<path fill-rule="evenodd" clip-rule="evenodd" d="M6.85521 2.07572C6.99961 1.93132 7.19547 1.8502 7.39968 1.8502H10.5897C10.7939 1.8502 10.9898 1.93132 11.1342 2.07572C11.2786 2.22013 11.3597 2.41598 11.3597 2.6202V3.3902L6.62968 3.39019V2.6202C6.62968 2.41598 6.71081 2.22013 6.85521 2.07572ZM4.97968 3.39019V2.6202C4.97968 1.97837 5.23465 1.36283 5.68849 0.908997C6.14232 0.455159 6.75786 0.200195 7.39968 0.200195H10.5897C11.2315 0.200195 11.847 0.455159 12.3009 0.908997C12.7547 1.36283 13.0097 1.97837 13.0097 2.6202V3.3902L16.1722 3.39019C16.6278 3.39019 16.9972 3.75955 16.9972 4.21519C16.9972 4.67082 16.6278 5.04019 16.1722 5.04019H15.4022V15.3802C15.4022 16.022 15.1472 16.6376 14.6934 17.0914C14.2395 17.5452 13.624 17.8002 12.9822 17.8002H5.00718C4.36536 17.8002 3.74982 17.5452 3.29599 17.0914C2.84215 16.6376 2.58718 16.022 2.58718 15.3802V5.04019H1.81719C1.36155 5.04019 0.992188 4.67082 0.992188 4.21519C0.992188 3.75955 1.36155 3.39019 1.81719 3.39019H4.97968ZM4.23718 15.3802V5.04019H13.7522V15.3802C13.7522 15.5844 13.6711 15.7803 13.5267 15.9247C13.3823 16.0691 13.1864 16.1502 12.9822 16.1502H5.00718C4.80297 16.1502 4.60712 16.0691 4.46271 15.9247C4.31831 15.7803 4.23718 15.5844 4.23718 15.3802ZM7.3997 7.37772C7.85534 7.37772 8.2247 7.74709 8.2247 8.20272V12.9877C8.2247 13.4434 7.85534 13.8127 7.3997 13.8127C6.94407 13.8127 6.5747 13.4434 6.5747 12.9877V8.20272C6.5747 7.74709 6.94407 7.37772 7.3997 7.37772ZM11.4147 8.20272C11.4147 7.74709 11.0453 7.37772 10.5897 7.37772C10.134 7.37772 9.76466 7.74709 9.76466 8.20272V12.9877C9.76466 13.4434 10.134 13.8127 10.5897 13.8127C11.0453 13.8127 11.4147 13.4434 11.4147 12.9877V8.20272Z" fill="#818386"/>
</svg>
