<svg width="40" height="67" viewBox="0 0 40 67" fill="none" xmlns="http://www.w3.org/2000/svg">
<g opacity="0.5">
<path fill-rule="evenodd" clip-rule="evenodd" d="M31.0607 28.9393C31.6464 29.5251 31.6464 30.4749 31.0607 31.0607L20 42.1213L8.93934 31.0607C8.35355 30.4749 8.35355 29.5251 8.93934 28.9393C9.52513 28.3536 10.4749 28.3536 11.0607 28.9393L20 37.8787L28.9393 28.9393C29.5251 28.3536 30.4749 28.3536 31.0607 28.9393Z" fill="white"/>
</g>
<path fill-rule="evenodd" clip-rule="evenodd" d="M31.0607 41.9393C31.6464 42.5251 31.6464 43.4749 31.0607 44.0607L20 55.1213L8.93934 44.0607C8.35355 43.4749 8.35355 42.5251 8.93934 41.9393C9.52513 41.3536 10.4749 41.3536 11.0607 41.9393L20 50.8787L28.9393 41.9393C29.5251 41.3536 30.4749 41.3536 31.0607 41.9393Z" fill="white"/>
<g opacity="0.2">
<path fill-rule="evenodd" clip-rule="evenodd" d="M31.0607 14.9393C31.6464 15.5251 31.6464 16.4749 31.0607 17.0607L20 28.1213L8.93934 17.0607C8.35355 16.4749 8.35355 15.5251 8.93934 14.9393C9.52513 14.3536 10.4749 14.3536 11.0607 14.9393L20 23.8787L28.9393 14.9393C29.5251 14.3536 30.4749 14.3536 31.0607 14.9393Z" fill="white"/>
</g>
</svg>
