<svg width="39" height="38" viewBox="0 0 39 38" fill="none" xmlns="http://www.w3.org/2000/svg">
<path fill-rule="evenodd" clip-rule="evenodd" d="M2.20039 0.591797C1.20628 0.591797 0.400391 1.39768 0.400391 2.3918C0.400391 3.38591 1.20628 4.1918 2.20039 4.1918H7.05194L8.33122 10.5834C8.33891 10.6321 8.34854 10.6801 8.36004 10.7274L11.0009 23.9221L11.0013 23.9238C11.2285 25.0657 11.8499 26.0914 12.7569 26.8215C13.6593 27.5479 14.7873 27.9357 15.9453 27.918H31.2892C32.4471 27.9357 33.5751 27.5479 34.4776 26.8215C35.385 26.091 36.0066 25.0646 36.2335 23.9221L36.2336 23.9221L36.2361 23.9086L38.7669 10.6377C38.8674 10.1108 38.7277 9.56646 38.3857 9.15313C38.0437 8.7398 37.5353 8.50053 36.9988 8.50053H11.5857L10.2924 2.03853C10.124 1.19729 9.3853 0.591797 8.52738 0.591797H2.20039ZM14.5315 23.2181L12.3063 12.1005H34.8231L32.7015 23.226C32.6383 23.5377 32.468 23.8176 32.2201 24.0172C31.9709 24.2179 31.659 24.3245 31.339 24.3183L31.3045 24.318H15.9299L15.8955 24.3183C15.5755 24.3245 15.2636 24.2179 15.0143 24.0172C14.7651 23.8165 14.5943 23.5346 14.532 23.2207L14.5315 23.2181ZM14.8544 34.2458C14.9753 34.2458 15.0733 34.1477 15.0733 34.0268C15.0733 33.9059 14.9753 33.8079 14.8544 33.8079C14.7335 33.8079 14.6354 33.9059 14.6354 34.0268C14.6354 34.1477 14.7335 34.2458 14.8544 34.2458ZM11.4733 34.0268C11.4733 32.1595 12.9871 30.6458 14.8544 30.6458C16.7217 30.6458 18.2354 32.1595 18.2354 34.0268C18.2354 35.8941 16.7217 37.4079 14.8544 37.4079C12.9871 37.4079 11.4733 35.8941 11.4733 34.0268ZM32.2536 34.2458C32.3745 34.2458 32.4725 34.1477 32.4725 34.0268C32.4725 33.9059 32.3745 33.8079 32.2536 33.8079C32.1327 33.8079 32.0346 33.9059 32.0346 34.0268C32.0346 34.1477 32.1327 34.2458 32.2536 34.2458ZM28.8725 34.0268C28.8725 32.1595 30.3863 30.6458 32.2536 30.6458C34.1209 30.6458 35.6346 32.1595 35.6346 34.0268C35.6346 35.8941 34.1209 37.4079 32.2536 37.4079C30.3863 37.4079 28.8725 35.8941 28.8725 34.0268Z" fill="white"/>
</svg>
