<svg width="40" height="40" viewBox="0 0 40 40" fill="none" xmlns="http://www.w3.org/2000/svg">
<path fill-rule="evenodd" clip-rule="evenodd" d="M5.0052 4.80549C5.39282 4.41786 5.91855 4.2001 6.46674 4.2001H33.5353C34.0835 4.2001 34.6092 4.41786 34.9968 4.80549C35.3844 5.19311 35.6022 5.71885 35.6022 6.26703V25.6017C35.6022 26.1499 35.3844 26.6756 34.9968 27.0632C34.6092 27.4509 34.0835 27.6686 33.5353 27.6686H10.3337C9.85628 27.6686 9.39845 27.8583 9.06088 28.1958L4.3998 32.8569V6.26703C4.3998 5.71885 4.61757 5.19311 5.0052 4.80549ZM6.46674 0.600098C4.96378 0.600098 3.52237 1.19715 2.45961 2.2599C1.39685 3.32266 0.799805 4.76407 0.799805 6.26703V37.2025C0.799805 37.9305 1.23836 38.5869 1.91097 38.8655C2.58359 39.1441 3.3578 38.9901 3.8726 38.4753L11.0793 31.2686H33.5353C35.0382 31.2686 36.4797 30.6716 37.5424 29.6088C38.6052 28.5461 39.2022 27.1047 39.2022 25.6017V6.26703C39.2022 4.76407 38.6052 3.32266 37.5424 2.2599C36.4797 1.19715 35.0382 0.600098 33.5353 0.600098H6.46674ZM9.78219 10.2001C8.78808 10.2001 7.98219 11.006 7.98219 12.0001C7.98219 12.9942 8.78808 13.8001 9.78219 13.8001H30.1998C31.1939 13.8001 31.9998 12.9942 31.9998 12.0001C31.9998 11.006 31.1939 10.2001 30.1998 10.2001H9.78219ZM9.7998 17.4014C8.80569 17.4014 7.9998 18.2072 7.9998 19.2014C7.9998 20.1955 8.80569 21.0014 9.7998 21.0014H23.0073C24.0014 21.0014 24.8073 20.1955 24.8073 19.2014C24.8073 18.2072 24.0014 17.4014 23.0073 17.4014L9.7998 17.4014Z" fill="white"/>
</svg>
