<svg width="40" height="40" viewBox="0 0 40 40" fill="none" xmlns="http://www.w3.org/2000/svg">
<path fill-rule="evenodd" clip-rule="evenodd" d="M10.1582 0.799805C11.1523 0.799805 11.9582 1.60569 11.9582 2.5998V3.80918H18.1998V2.5998C18.1998 1.60569 19.0057 0.799805 19.9998 0.799805C20.9939 0.799805 21.7998 1.60569 21.7998 2.5998V3.80918H27.7998V2.5998C27.7998 1.60569 28.6057 0.799805 29.5998 0.799805C30.5939 0.799805 31.3998 1.60569 31.3998 2.5998V3.80918H32.5998C36.2449 3.80918 39.1998 6.7641 39.1998 10.4092V17.8342C39.1998 18.8283 38.3939 19.6342 37.3998 19.6342C36.4057 19.6342 35.5998 18.8283 35.5998 17.8342V10.4092C35.5998 8.75233 34.2567 7.40918 32.5998 7.40918H31.3998V8.60316C31.3998 9.59727 30.5939 10.4032 29.5998 10.4032C28.6057 10.4032 27.7998 9.59727 27.7998 8.60316V7.40918H21.7998V8.60316C21.7998 9.59727 20.9939 10.4032 19.9998 10.4032C19.0057 10.4032 18.1998 9.59727 18.1998 8.60316V7.40918H11.9582V8.60316C11.9582 9.59727 11.1523 10.4032 10.1582 10.4032C9.16412 10.4032 8.35823 9.59727 8.35823 8.60316V7.40918H7.39981C5.74295 7.40918 4.3998 8.75233 4.3998 10.4092V32.6092C4.3998 34.266 5.74295 35.6092 7.39981 35.6092H17.8248C18.8189 35.6092 19.6248 36.4151 19.6248 37.4092C19.6248 38.4033 18.8189 39.2092 17.8248 39.2092H7.39981C3.75473 39.2092 0.799805 36.2543 0.799805 32.6092V10.4092C0.799805 6.7641 3.75472 3.80918 7.39981 3.80918H8.35823V2.5998C8.35823 1.60569 9.16412 0.799805 10.1582 0.799805ZM11.8878 16.5292C11.8878 17.457 11.1356 18.2092 10.2078 18.2092C9.27997 18.2092 8.52781 17.457 8.52781 16.5292C8.52781 15.6013 9.27997 14.8492 10.2078 14.8492C11.1356 14.8492 11.8878 15.6013 11.8878 16.5292ZM16.6878 18.2092C17.6156 18.2092 18.3678 17.457 18.3678 16.5292C18.3678 15.6013 17.6156 14.8492 16.6878 14.8492C15.76 14.8492 15.0078 15.6013 15.0078 16.5292C15.0078 17.457 15.76 18.2092 16.6878 18.2092ZM11.8878 23.0812C11.8878 24.009 11.1356 24.7612 10.2078 24.7612C9.27997 24.7612 8.52781 24.009 8.52781 23.0812C8.52781 22.1533 9.27997 21.4012 10.2078 21.4012C11.1356 21.4012 11.8878 22.1533 11.8878 23.0812ZM16.6878 24.7612C17.6156 24.7612 18.3678 24.009 18.3678 23.0812C18.3678 22.1533 17.6156 21.4012 16.6878 21.4012C15.76 21.4012 15.0078 22.1533 15.0078 23.0812C15.0078 24.009 15.76 24.7612 16.6878 24.7612ZM11.8878 29.5852C11.8878 30.513 11.1356 31.2652 10.2078 31.2652C9.27997 31.2652 8.52781 30.513 8.52781 29.5852C8.52781 28.6573 9.27997 27.9052 10.2078 27.9052C11.1356 27.9052 11.8878 28.6573 11.8878 29.5852ZM16.6878 31.2652C17.6156 31.2652 18.3678 30.513 18.3678 29.5852C18.3678 28.6573 17.6156 27.9052 16.6878 27.9052C15.76 27.9052 15.0078 28.6573 15.0078 29.5852C15.0078 30.513 15.76 31.2652 16.6878 31.2652ZM24.9198 16.5292C24.9198 17.457 24.1676 18.2092 23.2398 18.2092C22.312 18.2092 21.5598 17.457 21.5598 16.5292C21.5598 15.6013 22.312 14.8492 23.2398 14.8492C24.1676 14.8492 24.9198 15.6013 24.9198 16.5292ZM29.7198 18.2092C30.6476 18.2092 31.3998 17.457 31.3998 16.5292C31.3998 15.6013 30.6476 14.8492 29.7198 14.8492C28.792 14.8492 28.0398 15.6013 28.0398 16.5292C28.0398 17.457 28.792 18.2092 29.7198 18.2092Z" fill="white"/>
<path fill-rule="evenodd" clip-rule="evenodd" d="M35.6 29.6093C35.6 32.923 32.9137 35.6093 29.6 35.6093C26.2863 35.6093 23.6 32.923 23.6 29.6093C23.6 26.2956 26.2863 23.6093 29.6 23.6093C32.9137 23.6093 35.6 26.2956 35.6 29.6093ZM39.2 29.6093C39.2 34.9112 34.9019 39.2093 29.6 39.2093C24.2981 39.2093 20 34.9112 20 29.6093C20 24.3073 24.2981 20.0093 29.6 20.0093C34.9019 20.0093 39.2 24.3073 39.2 29.6093ZM30.08 27.2093C30.08 26.5465 29.5427 26.0093 28.88 26.0093C28.2172 26.0093 27.68 26.5465 27.68 27.2093V30.8093C27.68 31.472 28.2172 32.0093 28.88 32.0093H31.76C32.4227 32.0093 32.96 31.472 32.96 30.8093C32.96 30.1465 32.4227 29.6093 31.76 29.6093H30.08V27.2093Z" fill="white"/>
</svg>
