<svg width="40" height="32" viewBox="0 0 40 32" fill="none" xmlns="http://www.w3.org/2000/svg">
<path fill-rule="evenodd" clip-rule="evenodd" d="M4.60302 4.88487C4.88896 4.36019 5.44655 3.9999 6.07987 3.9999H33.9199C34.5532 3.9999 35.1108 4.36024 35.3968 4.88496L20 15.6627L4.60302 4.88487ZM0.799906 5.65925C0.799786 5.67056 0.799773 5.68187 0.799866 5.69317V26.5599C0.799866 29.468 3.17175 31.8399 6.07987 31.8399H33.9199C36.828 31.8399 39.1999 29.468 39.1999 26.5599C39.1999 24.2377 39.2071 21.915 39.2144 19.5923C39.2289 14.9553 39.2434 10.3178 39.2001 5.68197C39.2001 5.66827 39.2 5.65456 39.1997 5.64084C39.1997 5.63764 39.1997 5.63444 39.1996 5.63124C39.1729 2.79642 36.8114 0.399902 33.9199 0.399902H6.07987C3.17864 0.399902 0.811103 2.76057 0.799906 5.65925ZM35.5999 9.13715V26.5599C35.5999 27.4798 34.8398 28.2399 33.9199 28.2399H6.07987C5.15998 28.2399 4.39987 27.4798 4.39987 26.5599V9.13702L18.9677 19.3345C19.5875 19.7684 20.4124 19.7684 21.0322 19.3345L35.5999 9.13715Z" fill="white"/>
</svg>
