<svg width="40" height="40" viewBox="0 0 40 40" fill="none" xmlns="http://www.w3.org/2000/svg">
<path fill-rule="evenodd" clip-rule="evenodd" d="M12.1998 0.799805C5.90376 0.799805 0.799805 5.90376 0.799805 12.1998V27.7998C0.799805 34.0958 5.90376 39.1998 12.1998 39.1998H27.7998C34.0958 39.1998 39.1998 34.0958 39.1998 27.7998V12.1998C39.1998 5.90376 34.0958 0.799805 27.7998 0.799805H12.1998ZM4.3998 12.1998C4.3998 7.89198 7.89198 4.3998 12.1998 4.3998H27.7998C32.1076 4.3998 35.5998 7.89198 35.5998 12.1998V27.7998C35.5998 32.1076 32.1076 35.5998 27.7998 35.5998H12.1998C7.89198 35.5998 4.3998 32.1076 4.3998 27.7998V12.1998ZM28.6056 16.9817C29.3412 16.313 29.3954 15.1746 28.7267 14.439C28.058 13.7034 26.9196 13.6492 26.184 14.3179L17.8248 21.9172L14.6856 19.0634C13.95 18.3947 12.8116 18.4489 12.1429 19.1845C11.4742 19.92 11.5284 21.0585 12.264 21.7272L16.614 25.6817C17.3006 26.3059 18.3491 26.3059 19.0356 25.6817L28.6056 16.9817Z" fill="white"/>
</svg>
