<svg width="40" height="40" viewBox="0 0 40 40" fill="none" xmlns="http://www.w3.org/2000/svg">
<path fill-rule="evenodd" clip-rule="evenodd" d="M35.5994 25.9999H25.9994L25.9994 35.5999H35.5994V25.9999ZM25.9994 22.3999H35.5994C37.5876 22.3999 39.1994 24.0117 39.1994 25.9999V35.5999C39.1994 37.5881 37.5876 39.1999 35.5994 39.1999H25.9994C24.0112 39.1999 22.3994 37.5881 22.3994 35.5999V25.9999C22.3994 24.0117 24.0112 22.3999 25.9994 22.3999Z" fill="white"/>
<path fill-rule="evenodd" clip-rule="evenodd" d="M13.9998 4.3998H4.3998L4.3998 13.9998H13.9998V4.3998ZM35.5998 4.3998H25.9998V13.9998H35.5998V4.3998ZM13.9998 25.9998H4.3998L4.3998 35.5998H13.9998V25.9998ZM13.9998 0.799805H4.3998C2.41158 0.799805 0.799805 2.41158 0.799805 4.3998V13.9998C0.799805 15.988 2.41158 17.5998 4.3998 17.5998H13.9998C15.988 17.5998 17.5998 15.988 17.5998 13.9998V4.3998C17.5998 2.41158 15.988 0.799805 13.9998 0.799805ZM35.5998 0.799805H25.9998C24.0116 0.799805 22.3998 2.41158 22.3998 4.3998V13.9998C22.3998 15.988 24.0116 17.5998 25.9998 17.5998H35.5998C37.588 17.5998 39.1998 15.988 39.1998 13.9998V4.3998C39.1998 2.41158 37.588 0.799805 35.5998 0.799805ZM4.3998 22.3998H13.9998C15.988 22.3998 17.5998 24.0116 17.5998 25.9998V35.5998C17.5998 37.588 15.988 39.1998 13.9998 39.1998H4.3998C2.41158 39.1998 0.799805 37.588 0.799805 35.5998V25.9998C0.799805 24.0116 2.41158 22.3998 4.3998 22.3998Z" fill="white"/>
</svg>
