<svg width="46" height="46" viewBox="0 0 46 46" fill="none" xmlns="http://www.w3.org/2000/svg">
<path fill-rule="evenodd" clip-rule="evenodd" d="M26.8333 0H0V16.4352L21.7239 38.1591H26.8333V38.1589L26.9205 38.1591C37.4578 38.1591 46 29.6169 46 19.0795C46 8.5422 37.4578 0 26.9205 0L26.8333 0.000194711V0ZM32.5833 18.9924C32.5833 22.9379 29.3849 26.1363 25.4394 26.1364V26.1364H10.4545V11.8485H25.4165L25.4394 11.8485C29.3849 11.8485 32.5833 15.0469 32.5833 18.9924Z" fill="white"/>
<path fill-rule="evenodd" clip-rule="evenodd" d="M0.160612 0H0V16.4352L29.5648 46H46V45.8394L0.160612 0Z" fill="white"/>
<path fill-rule="evenodd" clip-rule="evenodd" d="M0 28.8135V46.0001H17.1866L0 28.8135Z" fill="#FF9054"/>
</svg>
